<svg xmlns="http://www.w3.org/2000/svg" viewBox="0 0 1320 740" width="1320" height="740" style="background:#ffffff; font-family:'Segoe UI', -apple-system, BlinkMacSystemFont, Roboto, Helvetica, Arial, sans-serif;">
  <defs>
    <pattern id="grid" width="20" height="20" patternUnits="userSpaceOnUse">
      <path d="M 20 0 L 0 0 0 20" fill="none" stroke="#f1f5f9" stroke-width="1"/>
    </pattern>
    <marker id="arrow" viewBox="0 0 10 10" refX="5" refY="5" markerWidth="6" markerHeight="6" orient="auto-start-reverse">
      <path d="M 0 1 L 10 5 L 0 9 z" fill="#16a34a" />
    </marker>
    <filter id="shadow" x="-5%" y="-5%" width="110%" height="110%">
      <feDropShadow dx="0" dy="2" stdDeviation="3" flood-opacity="0.08"/>
    </filter>
  </defs>

  <rect width="100%" height="100%" fill="#ffffff" />
  <rect width="100%" height="100%" fill="url(#grid)" />

  <!-- Outer Frame -->
  <rect x="24" y="18" width="1272" height="704" rx="12" fill="none" stroke="#0f172a" stroke-width="2.5" />

  <!-- Header Banner -->
  <rect x="24" y="18" width="1272" height="56" rx="12" fill="#0f172a" />
  <text x="48" y="53" font-size="20" font-weight="800" fill="#38bdf8" letter-spacing="0.5">SKEMA DRIVER PUSH-PULL (TOTEM-POLE NPN + PNP) AUTOMOTIVE GENERATOR</text>
  <text x="960" y="53" font-size="13" font-weight="500" fill="#94a3b8">ECUSniff Signal Stage v3.0</text>

  <!-- ==================== 4 MAIN FUNCTIONAL BLOCKS ==================== -->
  <!-- Block 1: Schmitt Trigger -->
  <rect x="44" y="92" width="260" height="460" rx="10" fill="#f8fafc" stroke="#cbd5e1" stroke-width="1.5" stroke-dasharray="5 4" filter="url(#shadow)"/>
  <rect x="54" y="104" width="240" height="26" rx="5" fill="#e2e8f0" />
  <text x="64" y="122" font-size="11" font-weight="700" fill="#334155">BLOK 1: SCHMITT TRIGGER (1x INVERT)</text>

  <!-- Block 2: Pre-Driver & Level Shifter -->
  <rect x="318" y="92" width="260" height="460" rx="10" fill="#f8fafc" stroke="#cbd5e1" stroke-width="1.5" stroke-dasharray="5 4" filter="url(#shadow)"/>
  <rect x="328" y="104" width="240" height="26" rx="5" fill="#e2e8f0" />
  <text x="338" y="122" font-size="11" font-weight="700" fill="#334155">BLOK 2: PRE-DRIVER LEVEL SHIFTER</text>

  <!-- Block 3: Push-Pull Output Stage -->
  <rect x="592" y="92" width="310" height="460" rx="10" fill="#f8fafc" stroke="#cbd5e1" stroke-width="1.5" stroke-dasharray="5 4" filter="url(#shadow)"/>
  <rect x="602" y="104" width="290" height="26" rx="5" fill="#e2e8f0" />
  <text x="612" y="122" font-size="11" font-weight="700" fill="#334155">BLOK 3: TOTEM-POLE (NPN + PNP)</text>

  <!-- Block 4: Mode & Coupling Selector -->
  <rect x="916" y="92" width="380" height="460" rx="10" fill="#f8fafc" stroke="#cbd5e1" stroke-width="1.5" stroke-dasharray="5 4" filter="url(#shadow)"/>
  <rect x="926" y="104" width="360" height="26" rx="5" fill="#e2e8f0" />
  <text x="936" y="122" font-size="11" font-weight="700" fill="#334155">BLOK 4: SAKLAR MODE &amp; KOPLING (SW1 / SW2)</text>

  <!-- ================================================================ -->
  <!--                      BLOK 1: SCHMITT TRIGGER                     -->
  <!-- ================================================================ -->
  <!-- IC Power Info Box -->
  <rect x="56" y="145" width="140" height="50" rx="6" fill="#ffffff" stroke="#e2e8f0" stroke-width="1.5" />
  <text x="66" y="166" font-size="11" font-weight="700" fill="#dc2626">74HC14 VCC: +5V</text>
  <text x="66" y="184" font-size="11" font-weight="700" fill="#475569">GND: Ground</text>

  <!-- ESP32 Input Terminal Box -->
  <rect x="56" y="275" width="95" height="54" rx="8" fill="#0284c7" stroke="#0369a1" stroke-width="2" />
  <text x="64" y="298" font-size="11" font-weight="800" fill="#ffffff">ESP32 GPIO</text>
  <text x="64" y="316" font-size="10" font-weight="600" fill="#e0f2fe">Pin 38 / 39</text>

  <!-- Wire from ESP32 to R1 -->
  <line x1="151" y1="302" x2="175" y2="302" stroke="#0f172a" stroke-width="2.5" stroke-linecap="round"/>

  <!-- Resistor R1 (10k) -->
  <rect x="175" y="292" width="34" height="20" fill="#ffffff" stroke="#0f172a" stroke-width="2" />
  <text x="182" y="306" font-size="9.5" font-weight="700" fill="#0f172a">10k</text>
  <text x="182" y="284" font-size="10" font-weight="700" fill="#64748b">R1</text>

  <!-- Wire from R1 to Inverter -->
  <line x1="209" y1="302" x2="235" y2="302" stroke="#0f172a" stroke-width="2.5" />
  <circle cx="222" cy="302" r="3" fill="#0f172a" />

  <!-- Filter Cap C1 (100pF) to Ground -->
  <line x1="222" y1="302" x2="222" y2="365" stroke="#0f172a" stroke-width="2" />
  <line x1="214" y1="365" x2="230" y2="365" stroke="#0f172a" stroke-width="2.5" />
  <line x1="214" y1="371" x2="230" y2="371" stroke="#0f172a" stroke-width="2.5" />
  <text x="235" y="371" font-size="9" font-weight="600" fill="#64748b">C1 100pF</text>
  <line x1="222" y1="371" x2="222" y2="388" stroke="#0f172a" stroke-width="2" />
  <!-- GND symbol -->
  <line x1="216" y1="388" x2="228" y2="388" stroke="#0f172a" stroke-width="2" />
  <line x1="218" y1="391" x2="226" y2="391" stroke="#0f172a" stroke-width="2" />
  <line x1="220" y1="394" x2="224" y2="394" stroke="#0f172a" stroke-width="2" />

  <!-- Single Inverter U1:A (Pin 1 & 2) -->
  <polygon points="235,277 235,327 275,302" fill="#e0f2fe" stroke="#0284c7" stroke-width="2" />
  <!-- Schmitt Glyph -->
  <path d="M 243 307 L 249 307 L 249 297 L 255 297" fill="none" stroke="#0369a1" stroke-width="1.5" />
  <circle cx="279" cy="302" r="4" fill="#ffffff" stroke="#0284c7" stroke-width="2" />
  <text x="226" y="271" font-size="10" font-weight="700" fill="#0284c7">Pin 1</text>
  <text x="270" y="271" font-size="10" font-weight="700" fill="#0284c7">Pin 2</text>
  <text x="240" y="342" font-size="10" font-weight="800" fill="#0369a1">U1:A</text>

  <!-- Note: 1x Invert Explanation Box -->
  <rect x="56" y="435" width="236" height="92" rx="6" fill="#eff6ff" stroke="#bfdbfe" stroke-width="1" />
  <text x="66" y="454" font-size="11" font-weight="800" fill="#1e40af">💡 ANALISIS FASA SINYAL:</text>
  <text x="66" y="472" font-size="10" fill="#1e293b">• ESP32 = HIGH ➔ Pin 2 = <tspan font-weight="700" fill="#dc2626">LOW</tspan></text>
  <text x="66" y="489" font-size="10" fill="#1e293b">• Q0 Mati ➔ Node B = <tspan font-weight="700" fill="#16a34a">HIGH (12V)</tspan></text>
  <text x="66" y="506" font-size="10" fill="#1e293b">• Q1 Hidup ➔ Output = <tspan font-weight="700" fill="#16a34a">HIGH</tspan></text>
  <text x="66" y="521" font-size="9.5" font-weight="700" fill="#0284c7">➔ Hasil Akhir: NON-INVERTING (Sefasa!)</text>

  <!-- ================================================================ -->
  <!--             BLOK 2: PRE-DRIVER LEVEL SHIFTER (Q0)                -->
  <!-- ================================================================ -->
  <!-- Wire from Pin 2 to R2 -->
  <line x1="283" y1="302" x2="340" y2="302" stroke="#0f172a" stroke-width="2.5" stroke-linecap="round"/>

  <!-- Resistor R2 (2.2k) to Base Q0 -->
  <rect x="340" y="292" width="34" height="20" fill="#ffffff" stroke="#0f172a" stroke-width="2" />
  <text x="346" y="306" font-size="9.5" font-weight="700" fill="#0f172a">2.2k</text>
  <text x="346" y="284" font-size="10" font-weight="700" fill="#64748b">R2</text>

  <line x1="374" y1="302" x2="415" y2="302" stroke="#0f172a" stroke-width="2.5" />

  <!-- NPN Transistor Q0 (BC547 / 2N2222 Pre-Driver) -->
  <circle cx="435" cy="302" r="22" fill="#ffffff" stroke="#0f172a" stroke-width="2" />
  <line x1="424" y1="289" x2="424" y2="315" stroke="#0f172a" stroke-width="3" />
  <!-- Collector -->
  <line x1="424" y1="294" x2="442" y2="280" stroke="#0f172a" stroke-width="2" />
  <line x1="442" y1="280" x2="442" y2="245" stroke="#0f172a" stroke-width="2.5" />
  <!-- Emitter -->
  <line x1="424" y1="310" x2="442" y2="324" stroke="#0f172a" stroke-width="2" />
  <polygon points="438,318 444,325 434,324" fill="#0f172a" />
  <line x1="442" y1="324" x2="442" y2="370" stroke="#0f172a" stroke-width="2.5" />

  <!-- Emitter Q0 to GND -->
  <line x1="436" y1="370" x2="448" y2="370" stroke="#0f172a" stroke-width="2" />
  <line x1="438" y1="373" x2="446" y2="373" stroke="#0f172a" stroke-width="2" />
  <line x1="440" y1="376" x2="444" y2="376" stroke="#0f172a" stroke-width="2" />

  <text x="463" y="298" font-size="12" font-weight="800" fill="#0f172a">Q0</text>
  <text x="463" y="312" font-size="10" font-weight="600" fill="#64748b">BC547</text>
  <text x="463" y="324" font-size="9" fill="#0284c7">(Pre-Driver)</text>

  <!-- Node B (Collector Q0) -->
  <circle cx="442" cy="245" r="4.5" fill="#dc2626" />
  <text x="452" y="240" font-size="11" font-weight="800" fill="#dc2626">NODE B</text>

  <!-- Resistor R3 (1k Pull-Up ke V_rail) -->
  <line x1="442" y1="245" x2="442" y2="215" stroke="#0f172a" stroke-width="2.5" />
  <rect x="432" y="165" width="20" height="50" fill="#ffffff" stroke="#0f172a" stroke-width="2" />
  <text x="406" y="194" font-size="9.5" font-weight="700" fill="#0f172a">1k</text>
  <text x="456" y="194" font-size="10" font-weight="700" fill="#64748b">R3</text>
  <line x1="442" y1="165" x2="442" y2="145" stroke="#0f172a" stroke-width="2.5" />

  <!-- V_RAIL Power Bus Line across top -->
  <line x1="442" y1="145" x2="745" y2="145" stroke="#dc2626" stroke-width="2.5" />
  <circle cx="442" cy="145" r="3.5" fill="#dc2626" />
  <circle cx="745" cy="145" r="3.5" fill="#dc2626" />
  <text x="480" y="138" font-size="11" font-weight="800" fill="#dc2626">JALUR V_RAIL (DARI SAKLAR SW1)</text>

  <!-- ================================================================ -->
  <!--          BLOK 3: TOTEM-POLE PUSH-PULL (Q1 NPN + Q2 PNP)          -->
  <!-- ================================================================ -->
  <!-- Wire from Node B to Bases of Q1 & Q2 -->
  <line x1="442" y1="245" x2="650" y2="245" stroke="#0f172a" stroke-width="2.5" />
  <circle cx="650" cy="245" r="4" fill="#0f172a" />

  <!-- Wire going UP to Base of Q1 (NPN) -->
  <line x1="650" y1="245" x2="650" y2="210" stroke="#0f172a" stroke-width="2.5" />
  <line x1="650" y1="210" x2="715" y2="210" stroke="#0f172a" stroke-width="2.5" />

  <!-- Wire going DOWN to Base of Q2 (PNP) -->
  <line x1="650" y1="245" x2="650" y2="350" stroke="#0f172a" stroke-width="2.5" />
  <line x1="650" y1="350" x2="715" y2="350" stroke="#0f172a" stroke-width="2.5" />

  <!-- [Q1 NPN: High-Side Source] -->
  <circle cx="735" cy="210" r="23" fill="#ffffff" stroke="#16a34a" stroke-width="2" />
  <line x1="724" y1="197" x2="724" y2="223" stroke="#0f172a" stroke-width="3" />
  <!-- Collector Q1 to V_RAIL -->
  <line x1="724" y1="202" x2="745" y2="188" stroke="#0f172a" stroke-width="2" />
  <line x1="745" y1="188" x2="745" y2="145" stroke="#dc2626" stroke-width="2.5" />
  <!-- Emitter Q1 (Arrow Out) to Output Node -->
  <line x1="724" y1="218" x2="745" y2="232" stroke="#0f172a" stroke-width="2" />
  <polygon points="740,226 746,234 736,233" fill="#0f172a" />
  <line x1="745" y1="232" x2="745" y2="280" stroke="#0f172a" stroke-width="2.5" />

  <text x="765" y="200" font-size="12" font-weight="800" fill="#16a34a">Q1 (NPN)</text>
  <text x="765" y="214" font-size="10" font-weight="600" fill="#475569">BC547 / BD139</text>
  <text x="765" y="226" font-size="9.5" font-weight="700" fill="#16a34a">[HIGH-SIDE SOURCE]</text>

  <!-- [Q2 PNP: Low-Side Sink] -->
  <circle cx="735" cy="350" r="23" fill="#ffffff" stroke="#2563eb" stroke-width="2" />
  <line x1="724" y1="337" x2="724" y2="363" stroke="#0f172a" stroke-width="3" />
  <!-- Emitter Q2 (Arrow In) from Output Node -->
  <line x1="724" y1="342" x2="745" y2="328" stroke="#0f172a" stroke-width="2" />
  <polygon points="733,338 726,343 731,349" fill="#0f172a" />
  <line x1="745" y1="328" x2="745" y2="280" stroke="#0f172a" stroke-width="2.5" />
  <!-- Collector Q2 to GND -->
  <line x1="724" y1="358" x2="745" y2="372" stroke="#0f172a" stroke-width="2" />
  <line x1="745" y1="372" x2="745" y2="415" stroke="#0f172a" stroke-width="2.5" />

  <!-- Collector Ground for Q2 -->
  <line x1="738" y1="415" x2="752" y2="415" stroke="#0f172a" stroke-width="2" />
  <line x1="740" y1="419" x2="750" y2="419" stroke="#0f172a" stroke-width="2" />
  <line x1="742" y1="423" x2="748" y2="423" stroke="#0f172a" stroke-width="2" />

  <text x="765" y="342" font-size="12" font-weight="800" fill="#2563eb">Q2 (PNP)</text>
  <text x="765" y="356" font-size="10" font-weight="600" fill="#475569">BC557 / BD140</text>
  <text x="765" y="368" font-size="9.5" font-weight="700" fill="#2563eb">[LOW-SIDE SINK]</text>

  <!-- TITIK OUTPUT PUSH-PULL (NODE C) -->
  <circle cx="745" cy="280" r="5" fill="#e11d48" />
  <!-- Label placed safely above wire with nice background -->
  <rect x="752" y="260" width="135" height="18" rx="3" fill="#ffe4e6" stroke="#fecdd3" />
  <text x="756" y="273" font-size="10" font-weight="800" fill="#e11d48">NODE C (Output Totem)</text>

  <!-- ================================================================ -->
  <!--             BLOK 4: SAKLAR MODE & KOPLING (SW1 / SW2)            -->
  <!-- ================================================================ -->
  <!-- SAKLAR 1: MODE & VOLTAGE SELECTOR (SW1) -->
  <rect x="930" y="130" width="200" height="150" rx="8" fill="#ffffff" stroke="#0284c7" stroke-width="2" />
  <text x="942" y="152" font-size="12" font-weight="800" fill="#0284c7">SAKLAR 1 (SW1)</text>
  <text x="942" y="167" font-size="9.5" font-weight="600" fill="#64748b">PEMILIH TEGANGAN V_RAIL:</text>

  <!-- SW1 Common Pole (Feeds V_RAIL) -->
  <circle cx="955" cy="225" r="4.5" fill="#0284c7" />

  <!-- Position 1: +12V -->
  <circle cx="1000" cy="195" r="4.5" fill="#dc2626" />
  <text x="1012" y="199" font-size="10.5" font-weight="700" fill="#dc2626">[1] +12V (Aki / PSU)</text>

  <!-- Position 2: +5V -->
  <circle cx="1000" cy="225" r="4.5" fill="#0284c7" />
  <text x="1012" y="229" font-size="10.5" font-weight="700" fill="#0284c7">[2] +5V (Regulator)</text>

  <!-- Position 3: Open Collector (Floating High-Side) -->
  <circle cx="1000" cy="255" r="4.5" fill="#16a34a" />
  <text x="1012" y="259" font-size="10.5" font-weight="700" fill="#16a34a">[3] NC (Open-Collector)</text>

  <!-- SW1 Blade Arm (Drawn connected to [1] 12V) -->
  <line x1="955" y1="225" x2="996" y2="198" stroke="#0284c7" stroke-width="3" stroke-linecap="round"/>

  <!-- Feed from SW1 Common to V_RAIL bus -->
  <line x1="745" y1="145" x2="920" y2="145" stroke="#dc2626" stroke-width="2.5" />
  <line x1="920" y1="145" x2="920" y2="225" stroke="#dc2626" stroke-width="2.5" />
  <line x1="920" y1="225" x2="955" y2="225" stroke="#dc2626" stroke-width="2.5" />

  <!-- SAKLAR 2: KOPLING OUTPUT (SW2) -->
  <!-- Wire from Node C (Push-Pull Output) over to SW2 -->
  <line x1="745" y1="280" x2="930" y2="280" stroke="#0f172a" stroke-width="2.5" />
  <line x1="930" y1="280" x2="930" y2="370" stroke="#0f172a" stroke-width="2.5" />
  <line x1="930" y1="370" x2="955" y2="370" stroke="#0f172a" stroke-width="2.5" />

  <rect x="930" y="310" width="180" height="150" rx="8" fill="#ffffff" stroke="#16a34a" stroke-width="2" />
  <text x="942" y="332" font-size="12" font-weight="800" fill="#16a34a">SAKLAR 2 (SW2)</text>
  <text x="942" y="347" font-size="9.5" font-weight="600" fill="#64748b">KOPLING OUTPUT:</text>

  <!-- SW2 Pivot -->
  <circle cx="955" cy="370" r="4.5" fill="#16a34a" />

  <!-- Terminal A: Direct DC -->
  <circle cx="1025" cy="390" r="4.5" fill="#0f172a" />
  <text x="970" y="394" font-size="11" font-weight="800" fill="#0f172a">[A] DC</text>

  <!-- Terminal B: AC Coupling -->
  <circle cx="1025" cy="435" r="4.5" fill="#7c3aed" />
  <text x="970" y="439" font-size="11" font-weight="800" fill="#7c3aed">[B] AC</text>

  <!-- SW2 Blade Arm (Drawn connected to [A] DC) -->
  <line x1="955" y1="370" x2="1020" y2="388" stroke="#16a34a" stroke-width="3" stroke-linecap="round"/>

  <!-- === JALUR [A]: DIRECT DC === -->
  <line x1="1025" y1="390" x2="1190" y2="390" stroke="#0f172a" stroke-width="2.5" />
  <line x1="1190" y1="390" x2="1190" y2="420" stroke="#0f172a" stroke-width="2.5" />
  <rect x="1060" y="365" width="115" height="20" rx="4" fill="#f1f5f9" stroke="#cbd5e1" />
  <text x="1066" y="379" font-size="9.5" font-weight="700" fill="#0f172a">Jalur DC Langsung</text>

  <!-- === JALUR [B]: AC COUPLING (KAPASITOR & CLAMPING) === -->
  <line x1="1025" y1="435" x2="1060" y2="435" stroke="#7c3aed" stroke-width="2.5" />
  <!-- Capacitor C2 (100nF) -->
  <line x1="1060" y1="422" x2="1060" y2="448" stroke="#7c3aed" stroke-width="3" />
  <line x1="1068" y1="422" x2="1068" y2="448" stroke="#7c3aed" stroke-width="3" />
  <text x="1050" y="415" font-size="10" font-weight="800" fill="#7c3aed">C2 100nF</text>

  <line x1="1068" y1="435" x2="1125" y2="435" stroke="#7c3aed" stroke-width="2.5" />
  <circle cx="1125" cy="435" r="3.5" fill="#7c3aed" />

  <!-- Diodes Clamping to GND -->
  <line x1="1115" y1="435" x2="1115" y2="455" stroke="#dc2626" stroke-width="1.5" />
  <polygon points="1110,455 1120,455 1115,467" fill="#dc2626" />
  <line x1="1110" y1="467" x2="1120" y2="467" stroke="#dc2626" stroke-width="2" />

  <line x1="1140" y1="435" x2="1140" y2="455" stroke="#dc2626" stroke-width="1.5" />
  <line x1="1135" y1="455" x2="1145" y2="455" stroke="#dc2626" stroke-width="2" />
  <polygon points="1135,467 1145,467 1140,455" fill="#dc2626" />

  <line x1="1115" y1="467" x2="1115" y2="478" stroke="#dc2626" stroke-width="1.5" />
  <line x1="1140" y1="467" x2="1140" y2="478" stroke="#dc2626" stroke-width="1.5" />
  <line x1="1115" y1="478" x2="1140" y2="478" stroke="#0f172a" stroke-width="1.5" />
  <line x1="1128" y1="478" x2="1128" y2="488" stroke="#0f172a" stroke-width="1.5" />
  <!-- Diode GND -->
  <line x1="1122" y1="488" x2="1134" y2="488" stroke="#0f172a" stroke-width="1.5" />
  <line x1="1124" y1="491" x2="1132" y2="491" stroke="#0f172a" stroke-width="1.5" />

  <text x="1090" y="508" font-size="9" font-weight="700" fill="#dc2626">1N4148 (Clamp)</text>

  <line x1="1125" y1="435" x2="1190" y2="435" stroke="#7c3aed" stroke-width="2.5" />
  <line x1="1190" y1="435" x2="1190" y2="420" stroke="#7c3aed" stroke-width="2.5" />

  <!-- Output Junction -->
  <circle cx="1190" cy="420" r="4.5" fill="#0f172a" />

  <!-- Series Protection Resistor R_out -->
  <line x1="1190" y1="420" x2="1205" y2="420" stroke="#0f172a" stroke-width="2.5" />
  <rect x="1205" y="410" width="30" height="20" fill="#ffffff" stroke="#0f172a" stroke-width="2" />
  <text x="1210" y="424" font-size="9.5" font-weight="700" fill="#0f172a">47Ω</text>
  <text x="1207" y="403" font-size="9.5" font-weight="700" fill="#64748b">R_out</text>
  <line x1="1235" y1="420" x2="1248" y2="420" stroke="#0f172a" stroke-width="2.5" />

  <!-- Terminal SIGNAL OUT -->
  <rect x="1248" y="395" width="42" height="50" rx="6" fill="#16a34a" stroke="#15803d" stroke-width="2" />
  <text x="1252" y="416" font-size="8.5" font-weight="800" fill="#ffffff">SIGNAL</text>
  <text x="1257" y="431" font-size="8.5" font-weight="800" fill="#ffffff">OUT</text>

  <!-- ================================================================ -->
  <!--               FOOTER: PANDUAN PRAKTIS BENCH-TEST                 -->
  <!-- ================================================================ -->
  <rect x="44" y="565" width="1252" height="140" rx="10" fill="#0f172a" />
  <text x="68" y="594" font-size="15" font-weight="800" fill="#38bdf8">⚡ KEUNGGULAN PUSH-PULL (TOTEM-POLE) &amp; PANDUAN PENYETELAN SAKLAR:</text>

  <rect x="68" y="610" width="380" height="80" rx="6" fill="#1e293b" stroke="#334155" />
  <text x="80" y="630" font-size="12" font-weight="800" fill="#facc15">1. Sinyal CKP &amp; CMP RPM Tinggi:</text>
  <text x="80" y="648" font-size="11" fill="#f8fafc">• SW1: <tspan font-weight="700" fill="#f87171">[1] +12V</tspan> (atau [2] +5V)</text>
  <text x="80" y="665" font-size="11" fill="#f8fafc">• SW2: <tspan font-weight="700" fill="#38bdf8">[A] Direct DC</tspan></text>
  <text x="80" y="680" font-size="10" fill="#94a3b8">Q1 &amp; Q2 aktif memompa dan menyedot arus ➔ gelombang kotak tegak tanpa cacat.</text>

  <rect x="464" y="610" width="380" height="80" rx="6" fill="#1e293b" stroke="#334155" />
  <text x="476" y="630" font-size="12" font-weight="800" fill="#facc15">2. EPS Avanza / Xenia / Karimun:</text>
  <text x="476" y="648" font-size="11" fill="#f8fafc">• SW1: <tspan font-weight="700" fill="#4ade80">[3] NC (Open-Collector)</tspan></text>
  <text x="476" y="665" font-size="11" fill="#f8fafc">• SW2: <tspan font-weight="700" fill="#38bdf8">[A] Direct DC</tspan></text>
  <text x="476" y="680" font-size="10" fill="#94a3b8">Q1 dimatikan, hanya transistor penarik ke GND yang aktif menyedot arus.</text>

  <rect x="860" y="610" width="420" height="80" rx="6" fill="#1e293b" stroke="#334155" />
  <text x="872" y="630" font-size="12" font-weight="800" fill="#c084fc">3. ECU Khusus (Zero-Crossing / Koil / Reluctor):</text>
  <text x="872" y="648" font-size="11" fill="#f8fafc">• SW1: <tspan font-weight="700" fill="#f87171">[1] +12V</tspan></text>
  <text x="872" y="665" font-size="11" fill="#f8fafc">• SW2: <tspan font-weight="700" fill="#c084fc">[B] AC COUPLING (Kapasitor 100nF)</tspan></text>
  <text x="872" y="680" font-size="10" fill="#94a3b8">Memotong DC bias, gelombang bolak-balik ±0.7V menembus nol volt.</text>
</svg>
